<?xml version="1.0" encoding="UTF-8"?>
<svg id="Layer_1" xmlns="http://www.w3.org/2000/svg" viewBox="0 0 1256.69 306">
  <defs>
    <style>
      .cls-1 {
        fill: #b29079;
      }
    </style>
  </defs>
  <path class="cls-1" d="M0,148.2C0,62.1,50.4,0,135.6,0c30.9,0,63,13.2,74.1,30.3l-29.4,35.1c-23.7-27.9-57.9-46.8-91.8-46.8-41.1,0-52.8,34.8-52.8,92.4,0,87.3,63.3,189.3,114,189.3,7.5,0,18.9-3.3,18.9-9.3v-149.1h44.1v138.6c-18.9,16.8-37.2,25.5-84.3,25.5C42.6,306,0,231.3,0,148.2Z"/>
  <path class="cls-1" d="M254.7,303V3h152.1c32.7,0,48.6,27,48.6,51.6,0,72.3-99.3,75.3-99.3,93.6,0,20.7,90.9,153,112.5,153v1.8h-49.5c-17.7,0-18.6-2.4-34.2-22.8-25.2-33-63.6-92.4-63.6-111.6,0-29.1,90.6-32.7,90.6-111.3,0-28.2-14.1-49.8-49.5-49.8h-64.2v295.5h-43.5Z"/>
  <path class="cls-1" d="M483.59,303c31.2-102.3,49.5-162.9,79.8-262.8,6.3-20.7,18.3-40.2,40.2-40.2s33.9,19.5,40.2,40.2c30.3,99.9,48.9,160.5,79.8,262.8h-45.9c-12.6-41.4-22.8-75.9-32.4-108.9h-100.2c-1.5,49.8.6,95.1,3.9,108.9h-65.4ZM643.79,189.6c-14.1-47.1-27.6-91.8-45.9-149.4-2.1-6.6-5.4-11.1-12-11.1-27,0-37.8,84.6-40.5,160.5h98.4Z"/>
  <path class="cls-1" d="M902.39,7.5h-36.3c-69,0-104.4,23.4-125.1,44.7V3h213.9l-166.8,295.5h36.3c63.3,0,108.9-23.4,129.6-44.7v49.2h-218.4L902.39,7.5Z"/>
  <path class="cls-1" d="M1133.69,7.5h-36.3c-69,0-104.4,23.4-125.1,44.7V3h213.9l-166.8,295.5h36.3c63.3,0,108.9-23.4,129.6-44.7v49.2h-218.4L1133.69,7.5Z"/>
  <path class="cls-1" d="M1213.19,3h43.5v300h-43.5V3Z"/>
</svg>